<svg width="121" height="14" viewBox="0 0 121 14" fill="none" xmlns="http://www.w3.org/2000/svg">
<path d="M1.20426 0.203125H3.43699L6.72454 9.59863L10.0121 0.203125H12.2448L7.62114 13H5.82793L1.20426 0.203125ZM0 0.203125H2.22393L2.62828 9.36133V13H0V0.203125ZM11.2251 0.203125H13.4579V13H10.8208V9.36133L11.2251 0.203125Z" fill="#4A4A4A"/>
<path d="M26.2828 6.30273V6.90918C26.2828 7.88184 26.151 8.75488 25.8873 9.52832C25.6236 10.3018 25.2514 10.9609 24.7709 11.5059C24.2904 12.0449 23.7161 12.458 23.048 12.7451C22.3858 13.0322 21.6504 13.1758 20.8417 13.1758C20.0388 13.1758 19.3034 13.0322 18.6353 12.7451C17.9731 12.458 17.3988 12.0449 16.9124 11.5059C16.426 10.9609 16.0481 10.3018 15.7785 9.52832C15.5148 8.75488 15.3829 7.88184 15.3829 6.90918V6.30273C15.3829 5.32422 15.5148 4.45117 15.7785 3.68359C16.0422 2.91016 16.4143 2.25098 16.8948 1.70605C17.3812 1.16113 17.9555 0.745117 18.6177 0.458008C19.2858 0.170898 20.0212 0.0273438 20.8241 0.0273438C21.6328 0.0273438 22.3682 0.170898 23.0304 0.458008C23.6985 0.745117 24.2728 1.16113 24.7533 1.70605C25.2397 2.25098 25.6148 2.91016 25.8785 3.68359C26.148 4.45117 26.2828 5.32422 26.2828 6.30273ZM23.6194 6.90918V6.28516C23.6194 5.60547 23.5579 5.00781 23.4348 4.49219C23.3117 3.97656 23.1301 3.54297 22.8898 3.19141C22.6495 2.83984 22.3565 2.57617 22.0108 2.40039C21.665 2.21875 21.2695 2.12793 20.8241 2.12793C20.3787 2.12793 19.9832 2.21875 19.6374 2.40039C19.2975 2.57617 19.0074 2.83984 18.7672 3.19141C18.5328 3.54297 18.354 3.97656 18.231 4.49219C18.1079 5.00781 18.0464 5.60547 18.0464 6.28516V6.90918C18.0464 7.58301 18.1079 8.18066 18.231 8.70215C18.354 9.21777 18.5357 9.6543 18.776 10.0117C19.0162 10.3633 19.3092 10.6299 19.655 10.8115C20.0007 10.9932 20.3963 11.084 20.8417 11.084C21.287 11.084 21.6826 10.9932 22.0284 10.8115C22.3741 10.6299 22.6642 10.3633 22.8986 10.0117C23.133 9.6543 23.3117 9.21777 23.4348 8.70215C23.5579 8.18066 23.6194 7.58301 23.6194 6.90918Z" fill="#4A4A4A"/>
<path d="M28.1815 0.203125H32.9546C33.9333 0.203125 34.7742 0.349609 35.4774 0.642578C36.1865 0.935547 36.7315 1.36914 37.1124 1.94336C37.4933 2.51758 37.6838 3.22363 37.6838 4.06152C37.6838 4.74707 37.5666 5.33594 37.3322 5.82812C37.1036 6.31445 36.7784 6.72168 36.3564 7.0498C35.9404 7.37207 35.4511 7.62988 34.8885 7.82324L34.0534 8.2627H29.9044L29.8868 6.20605H32.9722C33.4352 6.20605 33.819 6.12402 34.1237 5.95996C34.4285 5.7959 34.657 5.56738 34.8094 5.27441C34.9676 4.98145 35.0467 4.6416 35.0467 4.25488C35.0467 3.84473 34.9705 3.49023 34.8182 3.19141C34.6658 2.89258 34.4343 2.66406 34.1237 2.50586C33.8131 2.34766 33.4234 2.26855 32.9546 2.26855H30.8186V13H28.1815V0.203125ZM35.3368 13L32.4184 7.2959L35.2049 7.27832L38.1585 12.877V13H35.3368Z" fill="#4A4A4A"/>
<path d="M44.6984 8.43848H41.4372V6.38184H44.6984C45.2024 6.38184 45.6126 6.2998 45.929 6.13574C46.2455 5.96582 46.477 5.73145 46.6235 5.43262C46.77 5.13379 46.8432 4.79688 46.8432 4.42188C46.8432 4.04102 46.77 3.68652 46.6235 3.3584C46.477 3.03027 46.2455 2.7666 45.929 2.56738C45.6126 2.36816 45.2024 2.26855 44.6984 2.26855H42.3514V13H39.7143V0.203125H44.6984C45.7005 0.203125 46.559 0.384766 47.2739 0.748047C47.9947 1.10547 48.5456 1.60059 48.9265 2.2334C49.3074 2.86621 49.4979 3.58984 49.4979 4.4043C49.4979 5.23047 49.3074 5.94531 48.9265 6.54883C48.5456 7.15234 47.9947 7.61816 47.2739 7.94629C46.559 8.27441 45.7005 8.43848 44.6984 8.43848Z" fill="#4A4A4A"/>
<path d="M59.8528 5.41504V7.47168H53.1722V5.41504H59.8528ZM53.9545 0.203125V13H51.3174V0.203125H53.9545ZM61.7339 0.203125V13H59.1056V0.203125H61.7339Z" fill="#4A4A4A"/>
<path d="M74.5413 6.30273V6.90918C74.5413 7.88184 74.4094 8.75488 74.1457 9.52832C73.882 10.3018 73.5099 10.9609 73.0294 11.5059C72.5488 12.0449 71.9745 12.458 71.3065 12.7451C70.6443 13.0322 69.9088 13.1758 69.1001 13.1758C68.2973 13.1758 67.5618 13.0322 66.8938 12.7451C66.2316 12.458 65.6573 12.0449 65.1709 11.5059C64.6845 10.9609 64.3065 10.3018 64.0369 9.52832C63.7732 8.75488 63.6414 7.88184 63.6414 6.90918V6.30273C63.6414 5.32422 63.7732 4.45117 64.0369 3.68359C64.3006 2.91016 64.6728 2.25098 65.1533 1.70605C65.6397 1.16113 66.214 0.745117 66.8762 0.458008C67.5442 0.170898 68.2797 0.0273438 69.0825 0.0273438C69.8912 0.0273438 70.6267 0.170898 71.2889 0.458008C71.9569 0.745117 72.5312 1.16113 73.0118 1.70605C73.4982 2.25098 73.8732 2.91016 74.1369 3.68359C74.4065 4.45117 74.5413 5.32422 74.5413 6.30273ZM71.8778 6.90918V6.28516C71.8778 5.60547 71.8163 5.00781 71.6932 4.49219C71.5702 3.97656 71.3885 3.54297 71.1482 3.19141C70.908 2.83984 70.615 2.57617 70.2692 2.40039C69.9235 2.21875 69.5279 2.12793 69.0825 2.12793C68.6372 2.12793 68.2416 2.21875 67.8959 2.40039C67.556 2.57617 67.2659 2.83984 67.0256 3.19141C66.7912 3.54297 66.6125 3.97656 66.4894 4.49219C66.3663 5.00781 66.3048 5.60547 66.3048 6.28516V6.90918C66.3048 7.58301 66.3663 8.18066 66.4894 8.70215C66.6125 9.21777 66.7941 9.6543 67.0344 10.0117C67.2747 10.3633 67.5677 10.6299 67.9134 10.8115C68.2592 10.9932 68.6547 11.084 69.1001 11.084C69.5455 11.084 69.941 10.9932 70.2868 10.8115C70.6325 10.6299 70.9226 10.3633 71.157 10.0117C71.3914 9.6543 71.5702 9.21777 71.6932 8.70215C71.8163 8.18066 71.8778 7.58301 71.8778 6.90918Z" fill="#4A4A4A"/>
<path d="M83.8589 8.75488H86.4872C86.4345 9.61621 86.1971 10.3809 85.7752 11.0488C85.3591 11.7168 84.776 12.2383 84.0259 12.6133C83.2817 12.9883 82.3851 13.1758 81.3361 13.1758C80.5157 13.1758 79.7803 13.0352 79.1298 12.7539C78.4793 12.4668 77.9226 12.0566 77.4596 11.5234C77.0025 10.9902 76.6539 10.3457 76.4136 9.58984C76.1733 8.83398 76.0532 7.9873 76.0532 7.0498V6.16211C76.0532 5.22461 76.1763 4.37793 76.4224 3.62207C76.6744 2.86035 77.0318 2.21289 77.4948 1.67969C77.9636 1.14648 78.5233 0.736328 79.1737 0.449219C79.8242 0.162109 80.5509 0.0185547 81.3537 0.0185547C82.4203 0.0185547 83.3198 0.211914 84.0523 0.598633C84.7907 0.985352 85.3621 1.51855 85.7664 2.19824C86.1766 2.87793 86.4228 3.65137 86.5048 4.51855H83.8677C83.8384 4.00293 83.7359 3.56641 83.5601 3.20898C83.3843 2.8457 83.1176 2.57324 82.7601 2.3916C82.4085 2.2041 81.9397 2.11035 81.3537 2.11035C80.9142 2.11035 80.5304 2.19238 80.2022 2.35645C79.874 2.52051 79.5986 2.76953 79.3759 3.10352C79.1532 3.4375 78.9862 3.85938 78.8749 4.36914C78.7694 4.87305 78.7166 5.46484 78.7166 6.14453V7.0498C78.7166 7.71191 78.7664 8.29492 78.8661 8.79883C78.9657 9.29688 79.1181 9.71875 79.3232 10.0645C79.5341 10.4043 79.8037 10.6621 80.1319 10.8379C80.4659 11.0078 80.8673 11.0928 81.3361 11.0928C81.887 11.0928 82.3411 11.0049 82.6986 10.8291C83.0561 10.6533 83.3286 10.3926 83.5161 10.0469C83.7095 9.70117 83.8238 9.27051 83.8589 8.75488Z" fill="#4A4A4A"/>
<path d="M98.732 6.30273V6.90918C98.732 7.88184 98.6002 8.75488 98.3365 9.52832C98.0728 10.3018 97.7006 10.9609 97.2201 11.5059C96.7396 12.0449 96.1653 12.458 95.4972 12.7451C94.835 13.0322 94.0996 13.1758 93.2909 13.1758C92.488 13.1758 91.7526 13.0322 91.0845 12.7451C90.4223 12.458 89.848 12.0449 89.3616 11.5059C88.8752 10.9609 88.4973 10.3018 88.2277 9.52832C87.964 8.75488 87.8321 7.88184 87.8321 6.90918V6.30273C87.8321 5.32422 87.964 4.45117 88.2277 3.68359C88.4914 2.91016 88.8635 2.25098 89.344 1.70605C89.8304 1.16113 90.4047 0.745117 91.0669 0.458008C91.735 0.170898 92.4704 0.0273438 93.2733 0.0273438C94.082 0.0273438 94.8174 0.170898 95.4796 0.458008C96.1477 0.745117 96.722 1.16113 97.2025 1.70605C97.6889 2.25098 98.064 2.91016 98.3277 3.68359C98.5972 4.45117 98.732 5.32422 98.732 6.30273ZM96.0686 6.90918V6.28516C96.0686 5.60547 96.007 5.00781 95.884 4.49219C95.7609 3.97656 95.5793 3.54297 95.339 3.19141C95.0987 2.83984 94.8057 2.57617 94.46 2.40039C94.1142 2.21875 93.7187 2.12793 93.2733 2.12793C92.8279 2.12793 92.4324 2.21875 92.0866 2.40039C91.7467 2.57617 91.4566 2.83984 91.2164 3.19141C90.982 3.54297 90.8032 3.97656 90.6802 4.49219C90.5571 5.00781 90.4956 5.60547 90.4956 6.28516V6.90918C90.4956 7.58301 90.5571 8.18066 90.6802 8.70215C90.8032 9.21777 90.9849 9.6543 91.2252 10.0117C91.4654 10.3633 91.7584 10.6299 92.1042 10.8115C92.4499 10.9932 92.8455 11.084 93.2909 11.084C93.7362 11.084 94.1318 10.9932 94.4775 10.8115C94.8233 10.6299 95.1134 10.3633 95.3478 10.0117C95.5822 9.6543 95.7609 9.21777 95.884 8.70215C96.007 8.18066 96.0686 7.58301 96.0686 6.90918Z" fill="#4A4A4A"/>
<path d="M104.56 13H101.773L101.791 10.9434H104.56C105.251 10.9434 105.835 10.7881 106.309 10.4775C106.784 10.1611 107.141 9.70117 107.382 9.09766C107.628 8.49414 107.751 7.76465 107.751 6.90918V6.28516C107.751 5.62891 107.68 5.05176 107.54 4.55371C107.405 4.05566 107.203 3.63672 106.933 3.29688C106.664 2.95703 106.333 2.70215 105.94 2.53223C105.547 2.35645 105.096 2.26855 104.586 2.26855H101.721V0.203125H104.586C105.442 0.203125 106.224 0.349609 106.933 0.642578C107.648 0.929688 108.267 1.34277 108.788 1.88184C109.31 2.4209 109.711 3.06543 109.992 3.81543C110.279 4.55957 110.423 5.38867 110.423 6.30273V6.90918C110.423 7.81738 110.279 8.64648 109.992 9.39648C109.711 10.1465 109.31 10.791 108.788 11.3301C108.272 11.8633 107.654 12.2764 106.933 12.5693C106.218 12.8564 105.427 13 104.56 13ZM103.268 0.203125V13H100.631V0.203125H103.268Z" fill="#4A4A4A"/>
<path d="M120.927 10.9434V13H114.115V10.9434H120.927ZM114.976 0.203125V13H112.339V0.203125H114.976ZM120.04 5.41504V7.41895H114.115V5.41504H120.04ZM120.919 0.203125V2.26855H114.115V0.203125H120.919Z" fill="#4A4A4A"/>
</svg>
